<?xml version="1.0" encoding="UTF-8"?>
<svg enable-background="new 0 0 49.7 49.7" version="1.1" viewBox="0 0 49.7 49.7" xml:space="preserve" xmlns="http://www.w3.org/2000/svg">
<style type="text/css">
	.st0{fill:#333333;}
</style>
			<path class="st0" d="m24.1 20.5c-2.3-4.1-4.8-7.4-4.9-7.7-3.7 1.8-6.5 5.2-7.4 9.3 0.3 0 5.9 0.1 12.3-1.6z"/>
			<path class="st0" d="m21.6 11.9z"/>
			<path class="st0" d="m33.6 14.8c-2.3-2.1-5.4-3.3-8.8-3.3-1.1 0-2.1 0.1-3.1 0.4 0.2 0.3 2.7 3.6 5 7.8 5-1.9 6.9-4.8 6.9-4.9z"/>
			<path class="st0" d="m27.1 27c-7.9 2.7-10.4 8.3-10.4 8.3 2.3 1.8 5.1 2.8 8.2 2.8 1.8 0 3.6-0.4 5.2-1.1-0.3-1.1-1-5.2-3-10 0.1 0 0 0 0 0z"/>
			<path class="st0" d="m25.7 24.9c0.2-0.1 0.4-0.1 0.5-0.2-0.3-0.8-0.7-1.5-1.1-2.3-6.9 2.1-13.4 1.9-13.7 1.9v0.4c0 3.4 1.3 6.5 3.4 8.9 0.1 0.1 3.8-6.3 10.9-8.7z"/>
			<path class="st0" d="m24.8 0c-13.7 0-24.8 11.1-24.8 24.8s11.1 24.8 24.8 24.8 24.8-11.1 24.8-24.8c0.1-13.7-11.1-24.8-24.8-24.8zm15.3 28c-0.2 1-0.5 2-0.9 2.9s-0.9 1.8-1.4 2.6c-0.6 0.8-1.2 1.6-1.9 2.3s-1.5 1.3-2.3 1.9-1.7 1-2.6 1.4c-1 0.5-2 0.8-3 1s-2.1 0.3-3.1 0.3c-1.1 0-2.1-0.1-3.1-0.3s-2-0.5-2.9-0.9-1.8-0.9-2.6-1.4c-0.8-0.6-1.6-1.2-2.3-1.9s-1.3-1.5-1.9-2.3-1-1.7-1.4-2.6c-0.6-1-0.9-2-1.2-3-0.2-1-0.3-2.1-0.3-3.1 0-1.1 0.1-2.1 0.3-3.1s0.5-2 0.9-2.9 0.9-1.8 1.4-2.6c0.6-0.8 1.2-1.6 1.9-2.3s1.5-1.3 2.3-1.9 1.7-1 2.6-1.4 1.9-0.7 2.9-0.9 2.1-0.3 3.1-0.3c1.1 0 2.1 0.1 3.1 0.3s2 0.5 2.9 0.9 1.8 0.9 2.6 1.4c0.8 0.6 1.6 1.2 2.3 1.9s1.3 1.5 1.9 2.3 1 1.7 1.4 2.6 0.7 1.9 0.9 2.9 0.3 2.1 0.3 3.1c0.4 1 0.3 2 0.1 3.1z"/>
			<path class="st0" d="m29.7 26.4c1.7 4.8 2.5 8.7 2.6 9.5 3-2 5.1-5.2 5.7-8.9-0.3-0.1-4-1.3-8.3-0.6z"/>
			<path class="st0" d="m27.7 21.6c0.3 0.6 0.6 1.3 0.9 1.9 0.1 0.2 0.2 0.5 0.3 0.7 4.6-0.6 9.1 0.4 9.3 0.4 0-3.2-1.2-6.1-3-8.3-0.1 0.1-2.2 3.2-7.5 5.3z"/>
</svg>
